<svg width="57" height="89" viewBox="0 0 57 89" fill="none" xmlns="http://www.w3.org/2000/svg">
<path d="M28.0725 88.2429C32.9825 88.2429 36.9629 85.8955 36.9629 82.9999C36.9629 80.1042 32.9825 77.7568 28.0725 77.7568C23.1625 77.7568 19.1821 80.1042 19.1821 82.9999C19.1821 85.8955 23.1625 88.2429 28.0725 88.2429Z" fill="#5B5B5B"/>
<path d="M28.0757 0C12.5745 0 0 11.5229 0 25.7299C0 29.4361 1.11773 33.3996 2.75756 36.8925C5.05921 41.8046 7.56675 45.4373 8.3021 46.7756C10.3464 50.4965 10.0522 54.4159 10.6185 56.872C11.6847 61.4605 14.8761 63.1224 28.0683 63.1224C41.2605 63.1224 44.0989 61.5414 45.2828 57.3132C46.0917 54.438 45.3049 51.298 47.3418 47.5845C48.0772 46.2462 51.07 41.812 53.379 36.8925C55.0189 33.3996 56.1366 29.4361 56.1366 25.7299C56.1513 11.5229 43.5768 0 28.0757 0Z" fill="#FFD0D7"/>
<path d="M28.0779 63.6746C36.9882 63.6746 44.2115 62.2062 44.2115 60.3949C44.2115 58.5836 36.9882 57.1152 28.0779 57.1152C19.1676 57.1152 11.9443 58.5836 11.9443 60.3949C11.9443 62.2062 19.1676 63.6746 28.0779 63.6746Z" fill="#5D1721"/>
<path d="M28.0779 63.6746C36.9882 63.6746 44.2115 62.2062 44.2115 60.3949C44.2115 58.5836 36.9882 57.1152 28.0779 57.1152C19.1676 57.1152 11.9443 58.5836 11.9443 60.3949C11.9443 62.2062 19.1676 63.6746 28.0779 63.6746Z" fill="#FF667D"/>
<path d="M28.0747 61.9085C34.5686 61.9085 39.8329 61.2303 39.8329 60.3937C39.8329 59.5571 34.5686 58.8789 28.0747 58.8789C21.5808 58.8789 16.3164 59.5571 16.3164 60.3937C16.3164 61.2303 21.5808 61.9085 28.0747 61.9085Z" fill="#FFD0D7"/>
<path d="M20.2056 38.8054C19.7497 39.9525 18.5658 42.313 19.1835 43.3719C20.6174 45.8353 24.0368 46.7177 24.0368 48.9826C24.0368 52.4387 21.5219 63.6381 21.5219 63.6381M35.4494 38.3936C35.4494 38.3936 37.0966 41.9232 36.398 43.5042C35.8759 44.6808 32.736 46.578 32.3315 46.8942C30.4564 48.3649 32.9492 63.6455 32.9492 63.6455" stroke="#FF667D" stroke-width="1.47084" stroke-miterlimit="10"/>
<g filter="url(#filter0_d_331_781)">
<path d="M20.2073 38.8054C22.7369 33.8051 24.0385 22.3924 20.825 22.9734C15.4055 23.9514 22.0825 42.7028 25.3695 40.5482C28.6565 38.3936 32.7304 23.0101 27.73 22.9513C22.7296 22.8925 28.0682 42.5557 31.4656 40.3717C34.1496 38.6437 40.7015 22.9734 35.3188 22.9734C30.7376 22.9734 35.4585 38.3936 35.4585 38.3936" stroke="white" stroke-width="1.47084" stroke-miterlimit="10" shape-rendering="crispEdges"/>
</g>
<path d="M44.1756 61.0801C44.1756 61.0801 39.94 63.1243 28.0788 63.1243C16.2176 63.1243 11.982 61.0801 11.982 61.0801C11.982 61.0801 11.7172 64.8598 12.5923 66.5731C13.6438 68.6321 14.4527 69.3454 14.4527 69.3454L14.8939 71.4412L14.7175 71.9927C14.4895 72.7133 14.6513 73.5075 15.1587 74.0737L15.541 74.5002L15.9675 76.5151L15.8205 76.9195C15.541 77.6916 15.7322 78.552 16.3058 79.1403L16.5852 79.4271L16.9309 81.0742C16.9309 81.0742 18.681 84.8098 28.0788 84.8098C37.4765 84.8098 39.2267 81.0742 39.2267 81.0742L39.2561 80.9345L39.4473 80.7433C39.8297 80.3683 39.9547 79.8094 39.7708 79.3094L39.6605 79.0226L40.1164 76.846L40.918 76.0003C41.3151 75.5812 41.4033 74.9635 41.1459 74.4487L40.7783 73.7207L41.2415 71.5368L41.5357 71.3088C41.9695 70.8308 41.9769 70.1102 41.7857 69.6175C41.6386 69.2278 41.7563 68.7865 42.0578 68.4998C42.521 68.0586 43.1167 67.3894 43.5579 66.5584C44.4624 64.8745 44.1756 61.0801 44.1756 61.0801Z" fill="#5B5B5B"/>
<path d="M14.4492 69.3464L14.8463 71.4568C19.126 71.4348 24.8397 71.648 35.8038 69.9052C37.7819 69.4567 40.157 68.5669 37.5318 68.9346C37.5318 68.9272 27.4649 69.8905 14.4492 69.3464ZM15.9199 76.5308C20.6556 76.4499 30.3328 75.9792 40.7306 73.7217L41.1939 71.5377C30.3181 74.0085 20.0894 74.4497 15.4934 74.5085L15.9199 76.5308ZM40.0688 76.8396C30.4431 78.928 21.435 79.4648 16.5597 79.5825L16.8759 81.0826C16.8759 81.0826 17.0303 85.7373 28.0238 85.7373C39.0173 85.7373 39.1717 81.0826 39.1717 81.0826C39.1717 81.0826 34.4801 82.4209 28.7077 81.7664C28.6468 81.7669 28.5865 81.7554 28.5301 81.7326C28.4737 81.7098 28.4224 81.676 28.379 81.6334C28.2914 81.5472 28.2417 81.4297 28.2407 81.3069C28.2397 81.184 28.2876 81.0658 28.3738 80.9782C28.46 80.8906 28.5774 80.8409 28.7003 80.8399C32.1491 80.384 36.267 79.7075 39.6129 79.0162L40.0688 76.8396Z" fill="#FF667D"/>
<path d="M12.0303 61.0801C12.0303 61.0801 16.7806 63.1243 28.0315 63.1243C39.2823 63.1243 44.1209 61.0801 44.1209 61.0801" stroke="#5B5B5B" stroke-width="2.93947" stroke-miterlimit="10" stroke-linecap="round"/>
<path d="M17.6945 4.64761C20.5697 3.94167 23.5773 4.29464 25.6363 6.79483C26.2172 7.50077 26.6658 8.33907 26.7687 9.2509C26.9746 11.0084 25.8863 12.6703 24.5921 13.891C20.9006 17.3765 15.6576 19.0678 13.2751 23.877C12.7162 25.0021 12.275 26.2154 11.422 27.1346C10.569 28.0538 9.14974 28.6127 8.03936 28.0244C7.45108 27.7155 7.04664 27.1346 6.71573 26.5537C4.62734 22.8328 4.78176 18.0898 6.62014 14.2366C8.64235 10.0157 13.0765 5.78005 17.6945 4.64761Z" fill="white"/>
<path d="M15.1714 64.6585C14.5243 64.3643 14.7816 63.3937 15.4876 63.4451C17.8554 63.629 21.8851 63.8569 27.2164 63.8569C32.8345 63.8569 37.776 63.4378 40.6586 63.1289C41.3719 63.0554 41.644 64.0334 40.9895 64.3349C38.7688 65.3791 34.7023 66.5704 27.7311 66.5704C20.9292 66.5704 17.1789 65.5629 15.1714 64.6585Z" fill="#FFD0D7"/>
<path d="M19.208 72.089C18.7152 72.2655 18.2078 72.5081 17.9577 72.9641C17.8695 73.1333 17.818 73.3245 17.8548 73.5157C17.9136 73.7951 18.171 73.9937 18.4284 74.1187C18.9432 74.3688 19.5242 74.4349 20.0905 74.4423C21.2598 74.457 22.4217 74.2364 23.5763 74.0158C23.922 73.9496 24.275 73.8834 24.5839 73.7142C24.8927 73.5451 25.1575 73.2583 25.209 72.9126C25.2825 72.4493 24.9516 72.0007 24.5471 71.7801C23.1498 71.0079 20.62 71.5815 19.208 72.089ZM20.3037 76.9354C19.811 77.1119 19.3036 77.3546 19.0535 77.8105C18.9653 77.9797 18.9138 78.1709 18.9506 78.3621C19.0094 78.6415 19.2668 78.8401 19.5242 78.9651C20.039 79.2152 20.62 79.2814 21.1862 79.2887C22.3555 79.3034 23.5175 79.0828 24.6721 78.8622C25.0178 78.796 25.3708 78.7298 25.6796 78.5607C25.9885 78.3915 26.2533 78.1047 26.3048 77.759C26.3783 77.2957 26.0474 76.8471 25.6429 76.6265C24.2456 75.8617 21.7084 76.4353 20.3037 76.9354Z" fill="#5B5B5B"/>
<path d="M17.7887 58.9774C18.458 59.0436 19.164 58.9848 19.7302 58.6244C20.2965 58.264 20.6569 57.5286 20.4289 56.8962C20.3112 56.5652 20.0538 56.3005 19.8038 56.0504C19.2522 55.5062 18.7007 54.962 18.1564 54.4178C17.546 53.8074 16.9356 53.2044 16.2738 52.6528C15.2515 51.7997 13.8763 50.9981 12.5305 51.6232C11.3832 52.1527 11.1111 53.197 11.6186 54.2928C12.6996 56.5946 15.2148 58.7127 17.7887 58.9774Z" fill="white"/>
<defs>
<filter id="filter0_d_331_781" x="14.0405" y="22.2158" width="28.0752" height="27.2412" filterUnits="userSpaceOnUse" color-interpolation-filters="sRGB">
<feFlood flood-opacity="0" result="BackgroundImageFix"/>
<feColorMatrix in="SourceAlpha" type="matrix" values="0 0 0 0 0 0 0 0 0 0 0 0 0 0 0 0 0 0 127 0" result="hardAlpha"/>
<feOffset dy="4"/>
<feGaussianBlur stdDeviation="2"/>
<feComposite in2="hardAlpha" operator="out"/>
<feColorMatrix type="matrix" values="0 0 0 0 1 0 0 0 0 1 0 0 0 0 1 0 0 0 1 0"/>
<feBlend mode="normal" in2="BackgroundImageFix" result="effect1_dropShadow_331_781"/>
<feBlend mode="normal" in="SourceGraphic" in2="effect1_dropShadow_331_781" result="shape"/>
</filter>
</defs>
</svg>
